<svg width="713" height="395" viewBox="0 0 713 395" fill="none" xmlns="http://www.w3.org/2000/svg">
<path d="M342 48.5V345C342 345 342 354.5 334.5 362C327 369.5 318.5 369.5 318.5 369.5C318.5 369.5 308.408 370.479 302 369C289 366 292.5 363.607 256 361C205 357.357 145.969 385.687 87 391C64 393.072 27.5 394.5 27.5 394.5C27.5 394.5 17.5002 394 9.00014 385.5C0.500122 377 0 367 0 367V63C0 63 -4.3869e-05 52.5001 9.5 43C19 33.5 29.5 34.5001 29.5 34.5001C29.5 34.5001 88 36 136 22.5C184 9 251.5 -6.49999 294.5 7.00001C337.5 20.5 342 48.5 342 48.5Z" fill="#016831"/>
<path d="M370.5 46.7029L370.5 117C370.5 117 370.5 126.5 378 134C385.5 141.5 394 141.5 394 141.5C394 141.5 404.092 142.479 410.5 141C423.5 138 420 135.607 456.5 133C507.5 129.357 566.531 157.687 625.5 163C648.5 165.072 685 166.5 685 166.5C685 166.5 695 166 703.5 157.5C712 149 712.5 139 712.5 139V61.2027C712.5 61.2027 712.5 50.7029 703 41.2029C693.5 31.703 683 32.703 683 32.703C683 32.703 624.5 34.2029 576.5 20.7031C528.5 7.20317 461 -8.29669 418 5.20319C375 18.7031 370.5 46.7029 370.5 46.7029Z" fill="#69C729"/>
<path d="M370.5 211.5L370.5 345C370.5 345 370.5 354.5 378 362C385.5 369.5 394 369.5 394 369.5C394 369.5 404.092 370.479 410.5 369C423.5 366 420 363.607 456.5 361C507.5 357.357 566.531 385.688 625.5 391C648.5 393.072 685 394.5 685 394.5C685 394.5 695 394 703.5 385.5C712 377 712.5 367 712.5 367L712.5 226C712.5 226 712.5 215.5 703 206C693.5 196.5 683 197.5 683 197.5C683 197.5 624.5 199 576.5 185.5C528.5 172 461 156.5 418 170C375 183.5 370.5 211.5 370.5 211.5Z" fill="#00B63F"/>
<path d="M562 257.5V221.5C562 220.948 562.448 220.5 563 220.5H590C590.552 220.5 591 220.948 591 221.5V253.5C591 253.5 591 254.5 593.5 254.5C596 254.5 596 253.5 596 253.5V221.5C596 220.948 596.448 220.5 597 220.5H623C623.552 220.5 624 220.948 624 221.5V257.48C624 257.493 624 257.492 624 257.505C624.014 257.925 624.736 283 593.5 283C562 283 562 257.5 562 257.5Z" fill="white"/>
<path d="M663 220.5C675.198 220.5 683.15 227.93 685.367 230.29C685.733 230.679 685.687 231.279 685.288 231.635L663.838 250.753C663.391 251.151 663.391 251.849 663.838 252.247L685.324 271.398C685.708 271.74 685.767 272.312 685.434 272.703C683.368 275.13 675.688 283 663 283C653.5 283 641.842 277.5 636 268C630.5 259.056 630 244.758 636 235C642 225.242 654.5 220.5 663 220.5Z" fill="white"/>
<path d="M572.625 289.5H623C624.105 289.5 625 290.395 625 291.5V302C625 303.105 624.105 304 623 304H607C605.895 304 605 304.895 605 306V319C605 320.105 605.895 321 607 321L621.5 321C621.5 321 622.781 321 624 322.5C625 323.731 625 325 625 325V351.5C625 351.5 625 354.438 621.5 357.5C617.5 361 614 361 614 361H564.5C563.395 361 562.5 360.105 562.5 359V348.5C562.5 347.395 563.395 346.5 564.5 346.5H580C581.105 346.5 582 345.605 582 344.5V331.5C582 330.395 581.105 329.5 580 329.5L565 329.5C565 329.5 564 329.5 563 328.5C562 327.5 562 326 562 326V299.5C562 299.5 562 296.5 565.5 293C568.192 290.308 571.689 289.629 572.379 289.518C572.461 289.505 572.542 289.5 572.625 289.5Z" fill="white"/>
<path d="M683.115 290.589L660.737 333.192C659.995 334.606 657.976 334.622 657.211 333.22L633.878 290.443C633.382 289.533 632 289.886 632 290.922V359C632 360.105 632.895 361 634 361H683C684.105 361 685 360.105 685 359V291.054C685 290.01 683.6 289.665 683.115 290.589Z" fill="white"/>
</svg>
